Coordinates
version=1
nRows=16
nColumns=33
inDegrees=yes

Units are S.I. units (second, meters, Newtons, ...)
Angles are in degrees.

endheader
time	ground_thorax_rot_x	ground_thorax_rot_y	ground_thorax_rot_z	ground_thorax_tx	ground_thorax_ty	ground_thorax_tz	clav_prot_r	clav_elev_r	scapula_abduction_r	scapula_elevation_r	scapula_upward_rot_r	scapula_winging_r	shoulder_elv_r	plane_of_elev_r	axial_rot_r	elbow_flexion_r	pro_sup_r	wrist_flex_r	wrist_dev_r	clav_prot_l	clav_elev_l	scapula_abduction_l	scapula_elevation_l	scapula_upward_rot_l	scapula_winging_l	shoulder_elv_l	plane_of_elev_l	axial_rot_l	elbow_flexion_l	pro_sup_l	wrist_flex_l	wrist_dev_l
      5.27000000	    -38.89894273	     -5.86147903	     13.61035925	   -242.15994530	    853.20365771	      8.78674486	      6.36271397	    -45.00000000	     37.58330119	    -45.00000000	    -35.94677915	   2416.51172626	  -2806.76521789	     33.18461352	     65.70808128	    373.40665833	     28.87502592	     18.62352937	      3.36888899	     14.51355396	     37.33906395	    -36.95823270	    -45.00000000	    -45.00000000	   -633.45422715	   1705.99710483	    137.66293395	    158.24062964	    741.57622687	    128.82349006	     -1.16285194	    -10.54772875
      5.28000000	    -38.89505640	     -5.94772797	     13.67508817	   -242.22212257	    852.90559892	      8.86543994	      6.73042468	    -45.00000000	     37.55207055	    -45.00000000	    -36.40289920	   2416.39801004	  -2807.11907027	     33.50599914	     65.65393690	    372.98907877	     29.14312800	     18.65477697	      3.58731858	     14.60853492	     37.32287867	    -36.64022925	    -45.00000000	    -45.00000000	   -633.49174238	   1706.10185633	    137.37835200	    158.43177959	    741.39657700	    128.95222488	     -0.78609419	    -10.69867672
      5.29000000	    -38.81227029	     -5.96412555	     13.75554066	   -242.16749114	    852.58062150	      8.95829408	      6.59486587	    -45.00000000	     37.60602080	    -45.00000000	    -36.30436186	   2416.54141274	  -2806.73038808	     33.13115790	     65.25126964	    373.37527262	     29.20983485	     18.55194941	      3.24131217	     14.40943117	     37.31067335	    -36.87983797	    -45.00000000	    -45.00000000	   -633.67835093	   1705.80760737	    137.81216089	    158.26049246	    741.59530490	    129.01022646	     -1.15018828	    -10.66572537
      5.30000000	    -38.88744913	     -5.98287206	     13.71815823	   -242.00241241	    852.24230076	      9.06074658	      6.72317371	    -45.00000000	     37.48069886	    -45.00000000	    -36.59071427	   2416.38789994	  -2807.00896298	     33.54128449	     65.42559632	    373.31210475	     29.38734769	     18.72204089	      3.54979967	     14.63255938	     37.31527917	    -36.63240755	    -45.00000000	    -45.00000000	   -633.44931166	   1705.96667944	    137.35338107	    158.41343546	    741.64760962	    129.15311969	     -0.80323895	    -10.58354504
      5.31000000	    -38.94040367	     -5.95844289	     13.75545155	   -241.74369147	    851.89364651	      9.17085512	      6.67383229	    -45.00000000	     37.52137659	    -45.00000000	    -36.45046299	   2416.52799164	  -2806.93880775	     33.28576656	     65.19760303	    373.46601540	     29.43581256	     18.62656799	      3.30441605	     14.52449717	     37.28848689	    -36.76390594	    -45.00000000	    -45.00000000	   -633.59704613	   1705.97510189	    137.55692185	    158.31835230	    741.65054454	    129.29787313	     -0.98414518	    -10.63823044
      5.32000000	    -38.95604344	     -6.04736490	     13.83901481	   -241.41230765	    851.54049802	      9.28469657	      6.69403085	    -45.00000000	     37.55460288	    -45.00000000	    -36.51675137	   2416.49574868	  -2806.98372607	     33.35970135	     65.24262210	    373.47447423	     29.51080299	     18.70513463	      3.40156307	     14.58447900	     37.32089088	    -36.77081695	    -45.00000000	    -45.00000000	   -633.62154843	   1705.91694002	    137.59465565	    158.47671699	    741.68749340	    129.46925225	     -0.85994570	    -10.59204907
      5.33000000	    -38.98629985	     -6.05511536	     13.83810684	   -241.02207702	    851.18125122	      9.39980011	      6.67310722	    -45.00000000	     37.57694692	    -45.00000000	    -36.39261864	   2416.59769469	  -2806.97530613	     33.27751171	     65.11515161	    373.46140379	     29.50625995	     18.66348559	      3.30856987	     14.56990245	     37.28037850	    -36.78662553	    -45.00000000	    -45.00000000	   -633.66515918	   1705.90277565	    137.56764820	    158.48926820	    741.66603044	    129.64734235	     -0.91178548	    -10.62048012
      5.34000000	    -39.00509202	     -6.10834480	     13.90228913	   -240.58393153	    850.81999949	      9.51225979	      6.68722540	    -45.00000000	     37.57238834	    -45.00000000	    -36.37717830	   2416.57607862	  -2807.02638824	     33.35183130	     65.12246685	    373.45670277	     29.48039074	     18.76920180	      3.45684670	     14.61814876	     37.33178431	    -36.80368219	    -45.00000000	    -45.00000000	   -633.69384410	   1705.87221209	    137.54925975	    158.67592953	    741.67782691	    129.86858798	     -0.81465488	    -10.56200898
      5.35000000	    -39.03090110	     -6.11132260	     13.90216698	   -240.10463218	    850.45986601	      9.61811475	      6.65607264	    -45.00000000	     37.60290055	    -45.00000000	    -36.18971543	   2416.65777500	  -2807.01909288	     33.26232771	     64.95985039	    373.45856594	     29.33436604	     18.73700037	      3.35932129	     14.61375322	     37.27439796	    -36.82760742	    -45.00000000	    -45.00000000	   -633.74426492	   1705.89678488	    137.52001068	    158.70938635	    741.68758724	    130.10579433	     -0.88166097	    -10.60344879
      5.36000000	    -39.04031407	     -6.20282027	     13.96284772	   -239.58271269	    850.10381993	      9.71402587	      6.69388486	    -45.00000000	     37.64634066	    -45.00000000	    -36.16097134	   2416.63318421	  -2807.05132003	     33.34904407	     64.98652258	    373.45618118	     29.15261703	     18.89254079	      3.59265915	     14.61816882	     37.33591335	    -36.76074199	    -45.00000000	    -45.00000000	   -633.77876772	   1705.93548764	    137.45735837	    158.96367816	    741.71807935	    130.40924235	     -0.77703873	    -10.50879944
      5.37000000	    -39.04358202	     -6.24243476	     13.95084893	   -239.01453752	    849.75357378	      9.79664791	      6.69806995	    -45.00000000	     37.78060542	    -45.00000000	    -35.93676945	   2416.69928267	  -2807.04071482	     33.23670283	     64.78694348	    373.44606730	     28.82120865	     18.84573123	      3.46580832	     14.54391876	     37.22852037	    -36.67441380	    -45.00000000	    -45.00000000	   -633.90666758	   1706.03670011	    137.42746093	    159.04091210	    741.74074621	    130.73661523	     -0.87070607	    -10.56656067
      5.38000000	    -39.08144213	     -6.29042584	     13.94536256	   -238.38599289	    849.40679699	      9.86423485	      6.79540312	    -45.00000000	     37.81336696	    -45.00000000	    -35.84933195	   2416.67566911	  -2807.09061170	     33.37765138	     64.80979086	    373.48075860	     28.43343083	     19.02514445	      3.72955684	     14.46376469	     37.28164685	    -36.66142705	    -45.00000000	    -45.00000000	   -633.92032655	   1706.10906736	    137.36012868	    159.35922611	    741.79547319	    131.16745945	     -0.78825595	    -10.46496674
      5.39000000	    -39.04334750	     -6.42434035	     13.98432750	   -237.69222261	    849.06300314	      9.91469601	      6.75675945	    -45.00000000	     38.06761699	    -45.00000000	    -35.65385155	   2416.75564958	  -2807.07500503	     33.18283903	     64.63289544	    373.48961889	     27.94511359	     19.02237790	      3.67221190	     14.48123709	     37.19984741	    -36.48749126	    -45.00000000	    -45.00000000	   -634.06521991	   1706.23780013	    137.30553953	    159.47348651	    741.82569240	    131.60431683	     -0.86498906	    -10.49269376
      5.40000000	    -39.02429973	     -6.50078712	     14.10544384	   -236.91400696	    848.71315670	      9.94860440	      6.91330762	    -45.00000000	     38.12307331	    -45.00000000	    -35.54405587	   2416.73214180	  -2807.14825804	     33.28344680	     64.62281489	    373.33145732	     27.48247815	     19.15180567	      3.95601817	     14.35576141	     37.22583644	    -36.40326122	    -45.00000000	    -45.00000000	   -634.14794587	   1706.38313405	    137.18286986	    159.81208258	    741.77578823	    132.10540613	     -0.76768212	    -10.38553705
      5.41000000	    -39.08977181	     -6.16948367	     13.88843349	   -236.04290144	    848.35095219	      9.96686433	      6.86906710	    -45.00000000	     37.83849592	    -45.00000000	    -35.09128294	   2416.76397138	  -2807.20194674	     33.39404143	     64.45328738	    373.32532334	     26.72281981	     19.16711977	      3.94443803	     14.34329656	     37.22197534	    -37.11762061	    -45.00000000	    -45.00000000	   -633.96435446	   1706.04405191	    137.27153182	    159.98489961	    741.89342844	    132.79144060	     -0.86878424	    -10.41374911
      5.42000000	    -39.03116636	     -6.33610724	     14.03729795	   -235.06306438	    847.96589232	      9.97185578	      6.87242334	    -45.00000000	     37.98679598	    -45.00000000	    -34.89356767	   2416.76618299	  -2807.15952973	     33.40477260	     64.35682801	    373.32044981	     25.98818800	     19.22889498	      4.03064701	     14.27990050	     37.16238640	    -36.99191369	    -45.00000000	    -45.00000000	   -634.16614094	   1706.15578634	    137.27935047	    160.18900576	    741.99668728	    133.50157944	     -0.88412095	    -10.34097515
